<svg width="16" height="16" viewBox="0 0 16 16" fill="none" xmlns="http://www.w3.org/2000/svg">
<path fill-rule="evenodd" clip-rule="evenodd" d="M0 6.73684C0 3.02225 3.02225 0 6.73684 0C10.4516 0 13.4737 3.02225 13.4737 6.73684C13.4737 10.4516 10.4516 13.4737 6.73684 13.4737C3.02225 13.4737 0 10.4516 0 6.73684ZM1.2439 6.73533C1.2439 9.76422 3.70813 12.2285 6.73701 12.2285C9.76589 12.2285 12.2301 9.76418 12.2301 6.7353C12.2301 3.70642 9.76589 1.24219 6.73701 1.24219C3.70813 1.24219 1.2439 3.70645 1.2439 6.73533Z" fill="#616161"/>
<path d="M15.8086 14.8847L12.0626 11.1388C11.8074 10.8836 11.394 10.8836 11.1388 11.1388C10.8835 11.3938 10.8835 11.8077 11.1388 12.0627L14.8847 15.8086C15.0123 15.9362 15.1794 16 15.3466 16C15.5137 16 15.6809 15.9362 15.8086 15.8086C16.0638 15.5536 16.0638 15.1398 15.8086 14.8847Z" fill="#616161"/>
</svg>
