<svg width="33" height="33" viewBox="0 0 33 33" fill="none" xmlns="http://www.w3.org/2000/svg">
<path d="M21.3984 31.7109H19.4648V23.9766H21.3984C22.8223 23.9766 23.9766 25.1309 23.9766 26.5547V29.1328C23.9766 30.5566 22.8223 31.7109 21.3984 31.7109Z" stroke="#F96464" stroke-width="2" stroke-miterlimit="10" stroke-linecap="round" stroke-linejoin="round"/>
<path d="M27.8438 23.9766V31.7109" stroke="#F96464" stroke-width="2" stroke-miterlimit="10" stroke-linecap="round" stroke-linejoin="round"/>
<path d="M27.8438 23.9766H31.7109" stroke="#F96464" stroke-width="2" stroke-miterlimit="10" stroke-linecap="round" stroke-linejoin="round"/>
<path d="M30.4219 27.8438H27.8438" stroke="#F96464" stroke-width="2" stroke-miterlimit="10" stroke-linecap="round" stroke-linejoin="round"/>
<path d="M11.0859 31.7109V23.9766" stroke="#F96464" stroke-width="2" stroke-miterlimit="10" stroke-linecap="round" stroke-linejoin="round"/>
<path d="M13.6641 23.9766H11.0859V27.8438H13.6641C14.732 27.8438 15.5977 26.9781 15.5977 25.9102C15.5977 24.8422 14.732 23.9766 13.6641 23.9766Z" stroke="#F96464" stroke-width="2" stroke-miterlimit="10" stroke-linecap="round" stroke-linejoin="round"/>
<path d="M12.8906 11.6016V19.3359" stroke="#F96464" stroke-width="1.6" stroke-miterlimit="10" stroke-linecap="round" stroke-linejoin="round"/>
<path d="M10.3125 16.7578L12.8906 19.3359L15.4688 16.7578" stroke="#F96464" stroke-width="1.6" stroke-miterlimit="10" stroke-linecap="round" stroke-linejoin="round"/>
<path d="M24.4922 19.336V9.02344" stroke="black" stroke-width="1.6" stroke-miterlimit="10" stroke-linecap="round" stroke-linejoin="round"/>
<path d="M16.7578 1.28906H3.86719C2.44335 1.28906 1.28906 2.44335 1.28906 3.86719V29.1328C1.28906 30.5566 2.44335 31.7109 3.86719 31.7109H6.44531" stroke="black" stroke-width="1.6" stroke-miterlimit="10" stroke-linecap="round" stroke-linejoin="round"/>
<path d="M24.4922 9.02344H19.3359C17.9121 9.02344 16.7578 7.86915 16.7578 6.44531V1.28906L24.4922 9.02344Z" stroke="black" stroke-width="1.6" stroke-miterlimit="10" stroke-linecap="round" stroke-linejoin="round"/>
</svg>
