<?xml version="1.0" standalone="no"?>
<!DOCTYPE svg PUBLIC "-//W3C//DTD SVG 20010904//EN"
 "http://www.w3.org/TR/2001/REC-SVG-20010904/DTD/svg10.dtd">
<svg version="1.0" xmlns="http://www.w3.org/2000/svg"
 width="1953.000000pt" height="1241.000000pt" viewBox="0 0 1953.000000 1241.000000"
 preserveAspectRatio="xMidYMid meet">

<g transform="translate(0.000000,1241.000000) scale(0.100000,-0.100000)"
fill="#000000" stroke="none">
<path d="M3624 9240 c-439 -35 -846 -218 -1162 -524 -509 -492 -699 -1206
-505 -1890 133 -469 466 -885 901 -1127 92 -51 265 -128 290 -129 9 0 12 121
12 573 l0 573 -36 35 c-109 104 -203 291 -233 463 -26 146 -2 354 56 486 57
131 97 189 228 337 322 362 602 545 945 619 104 22 321 30 416 15 41 -7 78
-10 81 -8 3 3 -14 15 -37 27 -116 59 -406 86 -590 55 -330 -55 -625 -232 -947
-570 -76 -80 -143 -145 -150 -145 -18 0 -31 60 -43 203 -18 208 7 372 80 522
46 96 114 182 195 248 165 134 471 227 747 227 56 0 99 2 97 4 -10 9 -253 13
-345 6z"/>
<path d="M5295 8358 c-2 -7 -17 -100 -34 -205 l-30 -193 36 -77 c30 -65 59
-168 109 -383 6 -23 7 -22 21 15 51 144 55 385 9 571 -23 92 -92 284 -102 284
-3 0 -6 -6 -9 -12z"/>
<path d="M13543 7126 c-131 -30 -262 -127 -313 -231 -22 -44 -25 -63 -25 -160
0 -117 10 -151 72 -232 39 -51 149 -119 273 -169 259 -104 312 -147 312 -254
0 -55 -20 -98 -61 -133 -46 -38 -94 -50 -181 -45 -92 5 -185 45 -253 107 -24
23 -49 41 -54 41 -6 0 -50 -41 -98 -92 l-88 -92 29 -24 c290 -238 657 -258
870 -46 79 79 108 147 112 265 5 121 -12 185 -71 265 -57 78 -124 122 -286
189 -247 102 -301 142 -301 222 0 151 247 205 424 93 55 -36 40 -46 132 87 31
45 53 86 50 92 -13 20 -131 79 -201 101 -91 28 -256 35 -342 16z"/>
<path d="M3450 5935 l0 -1195 320 0 320 0 2 437 3 436 390 -436 389 -437 419
0 c396 0 419 1 406 17 -11 14 -1040 1151 -1126 1244 l-23 26 311 324 c172 178
411 426 532 552 l219 227 -434 0 -434 0 -324 -343 -325 -344 -3 344 -2 343
-320 0 -320 0 0 -1195z"/>
<path d="M7950 6395 l0 -725 135 0 135 0 0 350 c0 193 3 350 8 350 4 0 147
-157 317 -350 l310 -349 184 0 183 -1 -94 103 c-103 112 -572 629 -602 665
l-19 22 259 267 c142 148 285 296 318 331 l60 62 -186 0 -186 0 -267 -282
c-147 -156 -271 -284 -276 -286 -5 -2 -9 118 -9 282 l0 286 -135 0 -135 0 0
-725z"/>
<path d="M10321 7098 c-5 -13 -140 -329 -301 -703 -161 -374 -296 -690 -301
-702 l-9 -23 148 0 147 1 66 157 66 157 292 0 293 0 66 -157 67 -158 147 0
147 0 -33 78 c-18 42 -158 368 -311 725 l-277 647 -99 0 c-94 0 -100 -1 -108
-22z m202 -653 l86 -200 -176 -3 c-97 -1 -178 -1 -180 2 -3 2 35 97 84 209 48
113 91 202 94 199 4 -4 45 -97 92 -207z"/>
<path d="M11432 7098 c8 -13 121 -193 251 -400 l237 -377 0 -326 0 -325 140 0
140 0 0 330 0 331 245 390 c135 215 245 392 245 395 0 2 -71 4 -158 4 l-158 0
-155 -250 c-85 -137 -158 -248 -162 -247 -4 1 -77 112 -161 247 l-153 245
-163 3 -163 3 15 -23z"/>
<path d="M14800 6395 l0 -725 135 0 135 0 0 725 0 725 -135 0 -135 0 0 -725z"/>
<path d="M15830 6395 l0 -725 135 0 135 0 2 403 3 402 171 -280 172 -280 102
0 102 0 172 280 171 280 3 -402 2 -403 135 0 135 0 0 725 0 725 -97 0 -98 -1
-260 -429 c-143 -237 -262 -430 -265 -430 -3 0 -122 194 -265 430 l-260 429
-97 1 -98 0 0 -725z"/>
<path d="M5160 6274 c-118 -130 -216 -242 -218 -249 -2 -7 88 -122 198 -256
l202 -244 56 -13 c31 -7 87 -22 123 -33 l66 -22 64 26 c137 55 263 55 418 3
136 -47 253 -124 384 -254 158 -156 256 -350 309 -614 30 -152 33 -451 4 -603
-40 -215 -134 -451 -252 -627 -107 -161 -289 -337 -436 -422 -83 -48 -52 -39
50 14 513 269 883 800 967 1391 19 133 19 395 0 528 -87 614 -462 1136 -1016
1414 -208 105 -446 177 -634 192 l-70 6 -215 -237z"/>
<path d="M3359 4466 c-18 -18 41 -305 93 -456 65 -188 189 -407 318 -565 94
-114 363 -365 332 -309 -6 10 -64 309 -128 664 -64 355 -119 648 -123 651 -8
9 -484 23 -492 15z"/>
<path d="M4120 3116 c0 -2 8 -10 18 -17 15 -13 16 -12 3 4 -13 16 -21 21 -21
13z"/>
</g>
</svg>
