<svg width="68" height="50" viewBox="0 0 68 50" fill="none" xmlns="http://www.w3.org/2000/svg">
<path d="M53.1328 49.7393H42.1422H39.1827H38.5435V34.9972H43.3649C44.5877 34.9972 45.3102 33.6077 44.5877 32.6073L35.2088 19.6298C34.6114 18.7961 33.3747 18.7961 32.7773 19.6298L23.3984 32.6073C22.6759 33.6077 23.3846 34.9972 24.6212 34.9972H29.4426V49.7393H28.8034H25.8439H13.1026C5.80793 49.3363 0 42.5141 0 35.1222C0 30.0229 2.76502 25.5766 6.86392 23.1729C6.48876 22.1586 6.29424 21.0748 6.29424 19.9354C6.29424 14.725 10.5043 10.5149 15.7148 10.5149C16.8402 10.5149 17.924 10.7095 18.9383 11.0846C21.9534 4.69311 28.4561 0.260742 36.0147 0.260742C45.7965 0.274637 53.8553 7.76381 54.7724 17.3094C62.2893 18.6016 68 25.5627 68 33.441C68 41.8611 61.4418 49.1557 53.1328 49.7393Z" fill="#7E7E7E"/>
</svg>
